# xmcd
#
# Track frame offsets:
#	183
#	20035
#	37378
#	59068
#	78148
#	92548
#	105488
#	125120
#	142233
#	163688
#	178053
#	188945
#
# Disc length: 2792 seconds
# Revision: 3
# Processed by: cddbd v1.5.2PL0 Copyright (c) Steve Scherf et al.
# Submitted via: dBpowerAMP V12.0
#
DISCID=b10ae60c
DTITLE=張學友 - Amour [dB+1]
DYEAR=1986
DGENRE=Chinese Pop
TTITLE0=Amour
TTITLE1=月半彎
TTITLE2=偷心者
TTITLE3=愛戀的星火
TTITLE4=苗
TTITLE5=恕難從命
TTITLE6=遙遠的她
TTITLE7=單車少女
TTITLE8=真面目假面具
TTITLE9=征途
TTITLE10=霸王別姬 - 張學友 and 夏妙然
TTITLE11=楚歌
EXTD=
EXTT0=
EXTT1=
EXTT2=
EXTT3=
EXTT4=
EXTT5=
EXTT6=
EXTT7=
EXTT8=
EXTT9=
EXTT10=
EXTT11=
PLAYORDER=
